<svg width="62" height="48"  viewBox="0 0 62 48" fill="none" xmlns="http://www.w3.org/2000/svg">
<path fill-rule="evenodd" clip-rule="evenodd" d="M32.1343 21.859C32.1343 20.8381 32.0502 21.1494 32.8971 20.2963C34.8261 18.3528 49.4131 3.88481 49.7787 3.36897L46.8635 3.36733C46.3158 3.39778 46.6172 3.38147 45.8729 4.08402C45.0826 4.8301 44.3165 5.60804 43.5586 6.39486C42.794 7.18857 42.0345 7.93346 41.2502 8.70668C40.4608 9.48496 39.7477 10.2468 38.936 11.0127C36.3576 13.446 33.4365 16.6387 30.8493 19.1022C30.3443 19.5829 29.8359 19.9619 29.8359 20.404L29.8434 36.0684L39.8505 36.0659V23.2284C39.8505 22.5989 39.9213 22.6716 40.2586 22.3504C40.4839 22.1357 40.6339 21.9686 40.857 21.7504L56.5591 6.04148C56.9837 5.61768 60.3972 2.24303 60.8163 1.81988C61.1434 1.48983 61.781 0.940909 61.9999 0.60038C61.1535 0.625458 60.2761 0.613035 59.4275 0.605451C58.7664 0.599429 58.8331 0.59756 58.4803 0.937021L38.4188 20.9391C37.4211 21.9233 37.5422 21.6409 37.5422 22.5438L37.5459 33.758L32.1385 33.7579L32.1343 21.859Z" fill="#ffffff"/>
<path fill-rule="evenodd" clip-rule="evenodd" d="M0.310547 6.11015C0.520123 6.43037 1.20949 7.05502 1.52971 7.36971C2.23939 8.06719 2.34685 8.41873 2.96178 8.41873L12.4625 8.41797C13.5027 8.41762 13.3256 8.35737 13.7722 8.82332C13.9887 9.04921 14.1444 9.20186 14.3704 9.42409L25.7563 20.8027C26.0944 21.1382 26.0102 21.1498 26.0015 21.771C25.9469 25.7257 26.107 29.7884 25.996 33.7578L19.24 33.7446C19.1214 32.1901 19.2222 25.978 19.2222 23.9121C19.2222 23.1186 19.3515 21.9681 19.035 21.6197C18.6553 21.2015 18.1968 20.7974 17.7861 20.386L7.30551 9.89587C6.97558 9.59597 6.87022 9.68443 6.30068 9.68942C5.50285 9.69655 4.70543 9.69296 3.90741 9.70054C4.18506 10.1088 4.74662 10.5846 5.12488 10.9628L16.2089 22.05C16.9602 22.8075 16.9203 22.4214 16.918 23.8264L16.9203 36.0639L28.2985 36.0664C28.231 31.2343 28.295 26.3531 28.2952 21.5155C28.2953 19.704 28.5556 20.3755 27.1613 18.9709C24.3999 16.1889 20.853 12.5412 18.1153 9.95452C16.8682 8.77622 15.7744 7.52128 14.541 6.34005C14.1717 5.98648 13.559 6.11069 12.8904 6.1108L0.310547 6.11015Z" fill="#ffffff"/>
<path d="M0 39.9851L2.72256 44.0599V47.3735H4.40614V44.0599L7.12869 39.9851H5.10468L3.56437 42.3494L2.02401 39.9851H0ZM7.06603 43.6749C7.06603 45.8332 8.60636 47.5078 10.7916 47.5078C12.914 47.5078 14.5081 45.8332 14.5081 43.6749C14.5081 41.5165 12.8424 39.8509 10.7916 39.8509C8.75858 39.8509 7.06603 41.5165 7.06603 43.6749ZM8.88401 43.6749C8.88401 42.5733 9.49299 41.4718 10.7916 41.4718C12.0991 41.4718 12.6901 42.5733 12.6901 43.6749C12.6901 44.7764 12.1349 45.8779 10.7916 45.8779C9.41242 45.8779 8.88401 44.7764 8.88401 43.6749ZM17.6964 39.9851V47.3735H19.8367C21.8697 47.3735 23.5623 45.8332 23.5623 43.6749C23.5623 41.5254 21.8607 39.9851 19.8367 39.9851H17.6964ZM19.38 45.8689V41.4897H19.6397C20.8936 41.4897 21.7443 42.4479 21.7443 43.6838C21.7353 44.9196 20.8846 45.8689 19.6397 45.8689H19.38ZM25.9892 39.9851H24.3057V47.3735H25.9892V39.9851ZM33.7449 43.2361H30.3327V44.5346H32.0344C32.0344 45.4391 31.2373 45.9585 30.4312 45.9585C29.3924 45.9585 28.5506 44.9376 28.5506 43.6838C28.5506 42.4031 29.3924 41.3732 30.4312 41.3732C31.0851 41.3732 31.6492 41.633 32.0791 42.3225L33.1806 41.1135C32.5358 40.3344 31.6313 39.8509 30.3327 39.8509C28.255 39.8509 26.7327 41.5614 26.7327 43.6838C26.7327 45.7973 28.3446 47.5078 30.3327 47.5078C31.7836 47.5078 33.3419 46.7109 33.7449 44.8391V43.2361ZM36.1718 39.9851H34.4882V47.3735H36.1718V39.9851ZM36.4584 41.4628H38.2138V47.3735H39.8975V41.4628H41.6527V39.9851H36.4584V41.4628ZM45.6917 39.9851H44.1334L41.1512 47.3735H42.9602L43.5065 45.8958H46.3185L46.8648 47.3735H48.6739L45.6917 39.9851ZM45.7454 44.4182H44.0796L44.9036 42.2689H44.9215L45.7454 44.4182ZM50.6441 39.9851H48.9605V47.3735H53.1875V45.8958H50.6441V39.9851ZM56.743 39.8509C55.5518 39.8509 54.3338 40.7284 54.3338 42.1076C54.3338 42.8778 54.8532 43.5674 55.7399 44.0062C56.6175 44.4451 57.4057 44.6869 57.4057 45.2242C57.4057 45.9138 56.7071 45.9495 56.3399 45.9495C55.516 45.9495 54.5309 45.1167 54.5309 45.1167L53.6891 46.5317C53.6891 46.5317 54.7369 47.5078 56.4653 47.5078C57.9071 47.5078 59.2506 46.89 59.2506 45.1257C59.2506 44.1584 58.346 43.4599 57.5221 43.1106C56.6802 42.7524 55.9817 42.4569 55.9817 42.0449C55.9817 41.6419 56.2862 41.3822 56.8593 41.3822C57.6205 41.3822 58.355 41.8927 58.355 41.8927L59.0355 40.5493C59.0355 40.5493 58.0863 39.8509 56.743 39.8509Z" fill="#ffffff"/>
</svg>
