<?xml version="1.0" encoding="UTF-8"?>
<svg version="1.1" xmlns="http://www.w3.org/2000/svg" width="500" height="500">
<path d="M0 0 C8.31855457 5.15750384 14.90369582 11.93219852 17.9609375 21.35546875 C18.44397221 24.00230178 18.43825984 26.51429846 18.40625 29.203125 C18.39722656 30.18796875 18.38820313 31.1728125 18.37890625 32.1875 C18.36150391 33.30898437 18.36150391 33.30898437 18.34375 34.453125 C14.31505432 36.75018832 11.89074243 36.42748052 7.34375 35.453125 C6.02375 34.793125 4.70375 34.133125 3.34375 33.453125 C3.34375 29.823125 3.34375 26.193125 3.34375 22.453125 C2.35375 22.123125 1.36375 21.793125 0.34375 21.453125 C0.09625 20.855 -0.15125 20.256875 -0.40625 19.640625 C-2.33290553 16.26897783 -5.14897727 14.82497338 -8.65625 13.453125 C-15.34066706 11.82062711 -21.57554992 12.05166059 -27.65625 15.453125 C-32.93123132 19.92188647 -36.29134252 25.73106872 -36.96875 32.640625 C-36.65033473 35.50636241 -36.01782977 36.95689543 -34.65625 39.453125 C-34.2540625 41.1546875 -34.2540625 41.1546875 -33.84375 42.890625 C-32.48778069 46.95853293 -30.92916452 48.73900077 -27.65625 51.453125 C-26.66625 51.783125 -25.67625 52.113125 -24.65625 52.453125 C-24.02847656 52.78699219 -23.40070313 53.12085938 -22.75390625 53.46484375 C-20.49616983 54.52854452 -18.55247578 54.88703947 -16.09375 55.265625 C-13.07583089 55.92966631 -11.91636068 56.20114278 -9.65625 58.390625 C-8.41511381 62.19160458 -8.24411942 65.74892306 -8.16015625 69.734375 C-7.46959788 73.46017831 -6.4135154 74.81628234 -3.65625 77.453125 C-0.41105536 79.4168916 2.9772602 81.02480923 6.40625 82.640625 C8.40455092 83.60881124 10.401932 84.57889805 12.3984375 85.55078125 C13.90035645 86.2780542 13.90035645 86.2780542 15.43261719 87.02001953 C19.68300515 89.11241951 23.85630283 91.34003623 28.03125 93.578125 C36.7755005 98.23813445 45.68622818 102.50452263 54.67407227 106.67211914 C57.08046405 107.79772922 59.11009876 108.96402417 61.34375 110.453125 C63.41552491 111.64019603 65.50053139 112.80428874 67.59375 113.953125 C68.69203125 114.5615625 69.7903125 115.17 70.921875 115.796875 C74.41955183 117.48981447 77.59300867 118.50116019 81.34375 119.453125 C81.32634766 120.80857422 81.32634766 120.80857422 81.30859375 122.19140625 C81.29957031 123.37089844 81.29054688 124.55039063 81.28125 125.765625 C81.26384766 127.52326172 81.26384766 127.52326172 81.24609375 129.31640625 C81.19475102 132.48371695 81.19475102 132.48371695 82.34375 135.453125 C79.26463382 141.155192 79.26463382 141.155192 76.21875 142.140625 C75.6 142.24375 74.98125 142.346875 74.34375 142.453125 C73.68375 143.443125 73.02375 144.433125 72.34375 145.453125 C65.28835922 145.42995459 59.77107817 145.31795317 54.6015625 140.1484375 C52.84292772 137.77810366 52.13063396 135.27279254 51.34375 132.453125 C50.35375 132.123125 49.36375 131.793125 48.34375 131.453125 C48.34375 130.463125 48.34375 129.473125 48.34375 128.453125 C45.94655568 127.77353897 45.94655568 127.77353897 43.34375 127.453125 C42.68375 128.113125 42.02375 128.773125 41.34375 129.453125 C42.19749422 132.33533704 42.19749422 132.33533704 43.40625 134.328125 C44.51498324 136.84125369 44.4947495 138.73513403 44.34375 141.453125 C45.00375 141.453125 45.66375 141.453125 46.34375 141.453125 C46.50875 142.38125 46.67375 143.309375 46.84375 144.265625 C48.92571117 151.46451889 54.22539717 158.35844502 60.28125 162.703125 C63.95754925 164.65998096 67.00690184 165.03101991 71.09765625 164.30078125 C75.85765238 162.5044001 79.97393133 158.92464837 82.44140625 154.47265625 C83.0522443 153.10554252 83.64158741 151.72865561 84.2109375 150.34375 C85.63950767 147.95951564 86.95823396 147.33690644 89.46875 146.203125 C90.19320313 145.86796875 90.91765625 145.5328125 91.6640625 145.1875 C92.21835937 144.94515625 92.77265625 144.7028125 93.34375 144.453125 C91.06870466 141.040557 89.94991521 140.19804365 86.34375 138.453125 C86.21875 133.703125 86.21875 133.703125 87.34375 131.453125 C87.41467842 129.2458327 87.42790025 127.03645048 87.40625 124.828125 C87.39271484 123.04535156 87.39271484 123.04535156 87.37890625 121.2265625 C87.36730469 120.31132812 87.35570312 119.39609375 87.34375 118.453125 C88.66375 118.783125 89.98375 119.113125 91.34375 119.453125 C91.67375 121.103125 92.00375 122.753125 92.34375 124.453125 C96.94556474 124.71783116 99.85484326 124.0609899 103.96875 122.015625 C111.92249501 118.10559069 119.9889965 117.07693634 128.796875 118.984375 C135.71524365 121.41372582 139.6463738 125.24681496 143.34375 131.453125 C144.2923864 134.29903419 144.62125612 136.58702897 144.87890625 139.55859375 C144.96591797 140.54150391 145.05292969 141.52441406 145.14257812 142.53710938 C145.22958984 143.56126953 145.31660156 144.58542969 145.40625 145.640625 C145.54256836 147.19426758 145.54256836 147.19426758 145.68164062 148.77929688 C145.90558483 151.33697544 146.12615673 153.89489959 146.34375 156.453125 C147.00375 156.123125 147.66375 155.793125 148.34375 155.453125 C149.80948934 156.35790237 151.26610756 157.27746641 152.71875 158.203125 C153.53085937 158.71359375 154.34296875 159.2240625 155.1796875 159.75 C157.42930679 161.5204585 158.30281848 162.82219919 159.34375 165.453125 C160.82875 164.463125 160.82875 164.463125 162.34375 163.453125 C163.57906706 164.92215069 164.81191565 166.39338302 166.02734375 167.87890625 C167.04202355 169.09230673 168.11877095 170.25397998 169.21875 171.390625 C170.95860888 174.58036627 170.04324151 176.95566747 169.34375 180.453125 C169.14449012 181.93075343 168.95682902 183.40999598 168.78125 184.890625 C168.636875 186.06625 168.4925 187.241875 168.34375 188.453125 C167.68375 188.453125 167.02375 188.453125 166.34375 188.453125 C166.34375 189.443125 166.34375 190.433125 166.34375 191.453125 C165.68375 191.453125 165.02375 191.453125 164.34375 191.453125 C164.0034375 192.38125 164.0034375 192.38125 163.65625 193.328125 C161.96445165 196.06722709 160.35130839 196.50336972 157.34375 197.453125 C157.34375 198.113125 157.34375 198.773125 157.34375 199.453125 C149.92696755 201.80743815 142.75574886 201.72276096 135.03320312 201.68017578 C133.59361784 201.67961087 132.15403198 201.67992979 130.71444702 201.68106079 C126.82656387 201.68163218 122.93880533 201.66991264 119.050951 201.65591288 C114.98038498 201.64336975 110.90981577 201.6422322 106.8392334 201.63986206 C99.14004112 201.63365779 91.44090597 201.61726128 83.7417388 201.59716308 C74.97268342 201.57477124 66.20362525 201.5638024 57.43454838 201.55377221 C39.40424993 201.53289408 21.37400456 201.49773866 3.34375 201.453125 C3.34375 202.113125 3.34375 202.773125 3.34375 203.453125 C1.03125 203.640625 1.03125 203.640625 -1.65625 203.453125 C-2.29240234 202.66228516 -2.29240234 202.66228516 -2.94140625 201.85546875 C-3.50730469 201.39269531 -4.07320312 200.92992187 -4.65625 200.453125 C-7.58998417 200.79736979 -7.58998417 200.79736979 -10.78125 201.828125 C-19.4572649 204.07424886 -25.18145248 202.87449572 -33.65625 200.453125 C-36.64861594 200.020841 -39.64434193 199.71265449 -42.65625 199.453125 C-41.66625 200.113125 -40.67625 200.773125 -39.65625 201.453125 C-58.86663039 201.56991025 -78.07693879 201.65808957 -97.28760052 201.71218586 C-106.20739799 201.73797102 -115.12697493 201.77312737 -124.04663086 201.83032227 C-131.82073212 201.88014785 -139.59467367 201.91241375 -147.36893016 201.92356747 C-151.48568891 201.93008774 -155.60199078 201.94541812 -159.71860313 201.98177528 C-163.59367153 202.01572179 -167.468095 202.02618094 -171.34329796 202.01866341 C-172.76512151 202.02003859 -174.1869667 202.02997992 -175.60866165 202.04915237 C-177.55105721 202.07406119 -179.49379908 202.06506037 -181.43632507 202.05439758 C-183.06651597 202.06131103 -183.06651597 202.06131103 -184.72964001 202.06836414 C-188.63679852 201.24699168 -190.07495929 199.42194553 -192.65625 196.453125 C-194.0484375 195.1228125 -194.0484375 195.1228125 -195.46875 193.765625 C-197.65625 191.453125 -197.65625 191.453125 -197.65625 189.453125 C-198.31625 189.453125 -198.97625 189.453125 -199.65625 189.453125 C-199.98625 188.463125 -200.31625 187.473125 -200.65625 186.453125 C-200.16125 185.463125 -200.16125 185.463125 -199.65625 184.453125 C-200.31625 184.123125 -200.97625 183.793125 -201.65625 183.453125 C-201.71027274 181.34923931 -201.74905256 179.24495786 -201.78125 177.140625 C-201.80445313 175.96886719 -201.82765625 174.79710937 -201.8515625 173.58984375 C-201.65625 170.453125 -201.65625 170.453125 -199.65625 167.453125 C-198.99625 167.453125 -198.33625 167.453125 -197.65625 167.453125 C-197.65625 166.793125 -197.65625 166.133125 -197.65625 165.453125 C-190.32520306 159.56425123 -181.27635949 155.55291131 -172.91918945 151.36157227 C-172.039646 150.91354248 -171.16010254 150.4655127 -170.25390625 150.00390625 C-169.46508057 149.60856689 -168.67625488 149.21322754 -167.86352539 148.8059082 C-165.52046199 147.51673045 -165.52046199 147.51673045 -163.68139648 145.23120117 C-163.01309814 144.64443604 -162.3447998 144.0576709 -161.65625 143.453125 C-160.00625 143.783125 -158.35625 144.113125 -156.65625 144.453125 C-156.65625 149.403125 -156.65625 154.353125 -156.65625 159.453125 C-158.63625 160.443125 -158.63625 160.443125 -160.65625 161.453125 C-160.98625 162.113125 -161.31625 162.773125 -161.65625 163.453125 C-162.95936673 164.17707874 -164.30313387 164.82758607 -165.65625 165.453125 C-167.33074219 166.30777344 -167.33074219 166.30777344 -169.0390625 167.1796875 C-170.28641168 167.81259195 -171.53380867 168.44540218 -172.78125 169.078125 C-173.41417969 169.40296875 -174.04710937 169.7278125 -174.69921875 170.0625 C-179.43024554 172.453125 -179.43024554 172.453125 -181.65625 172.453125 C-182.64625 174.433125 -182.64625 174.433125 -183.65625 176.453125 C-184.31625 176.453125 -184.97625 176.453125 -185.65625 176.453125 C-185.63498538 179.85927446 -185.63498538 179.85927446 -184.65625 183.453125 C-179.38284583 187.24414195 -173.92010744 186.89420931 -167.69384766 186.88549805 C-166.60057159 186.8956897 -165.50729553 186.90588135 -164.38088989 186.91638184 C-160.77731194 186.94650855 -157.17399984 186.95577758 -153.5703125 186.96484375 C-151.06781125 186.98169061 -148.56531845 186.99984086 -146.06283569 187.01924133 C-140.15567647 187.06189419 -134.24854449 187.09142864 -128.34128511 187.11456472 C-120.95269254 187.14430995 -113.5642623 187.19449998 -106.17578125 187.24414062 C-93.00266845 187.33017954 -79.82952695 187.39809064 -66.65625 187.453125 C-66.32625 188.443125 -65.99625 189.433125 -65.65625 190.453125 C-65.3675 189.834375 -65.07875 189.215625 -64.78125 188.578125 C-63.65625 186.453125 -63.65625 186.453125 -61.65625 184.453125 C-61.16125 183.6075 -60.66625 182.761875 -60.15625 181.890625 C-58.65625 179.453125 -58.65625 179.453125 -56.65625 178.453125 C-56.32625 177.463125 -55.99625 176.473125 -55.65625 175.453125 C-53.34625 175.123125 -51.03625 174.793125 -48.65625 174.453125 C-48.65625 170.51087425 -50.22945753 169.2140362 -52.66015625 166.26953125 C-53.65625 164.453125 -53.65625 164.453125 -53.37109375 162.41796875 C-53.13519531 161.76957031 -52.89929688 161.12117187 -52.65625 160.453125 C-51.29548098 157.50028631 -51.29548098 157.50028631 -52.78125 154.953125 C-54.84240177 152.20492264 -56.67402436 151.0933491 -59.65625 149.453125 C-60.65625 148.453125 -61.65625 147.453125 -62.65625 146.453125 C-63.64625 146.123125 -64.63625 145.793125 -65.65625 145.453125 C-66.64625 140.008125 -66.64625 140.008125 -67.65625 134.453125 C-66.66625 134.783125 -65.67625 135.113125 -64.65625 135.453125 C-64.32625 134.256875 -63.99625 133.060625 -63.65625 131.828125 C-61.4019114 125.77361562 -56.61984875 122.93492438 -51.03125 120.140625 C-44.37497878 118.21380965 -37.89735711 118.36708356 -31.03125 118.453125 C-28.9766158 118.47868015 -26.92191888 118.49969685 -24.8671875 118.515625 C-23.51052979 118.53302734 -23.51052979 118.53302734 -22.12646484 118.55078125 C-19.81360668 118.45934586 -17.86822871 118.1085261 -15.65625 117.453125 C-15.65625 116.793125 -15.65625 116.133125 -15.65625 115.453125 C-12.25284693 113.35872311 -9.61187822 113.19514925 -5.65625 113.453125 C-4.99625 113.783125 -4.33625 114.113125 -3.65625 114.453125 C-3.65625 113.793125 -3.65625 113.133125 -3.65625 112.453125 C-2.66625 112.123125 -1.67625 111.793125 -0.65625 111.453125 C-0.0375 110.64875 0.58125 109.844375 1.21875 109.015625 C3.49055333 106.27609746 4.99417354 105.4766067 8.34375 104.453125 C6.03276718 97.08813682 -0.29964694 94.96091649 -6.76464844 91.58081055 C-11.67718735 89.3186669 -15.31306516 87.77655829 -20.6015625 89.5234375 C-24.61436161 91.38082298 -28.09612822 93.84966696 -31.65625 96.453125 C-32.31625 96.453125 -32.97625 96.453125 -33.65625 96.453125 C-33.98625 97.113125 -34.31625 97.773125 -34.65625 98.453125 C-36.21240234 99.34765625 -36.21240234 99.34765625 -38.2421875 100.265625 C-38.99959229 100.61439697 -39.75699707 100.96316895 -40.53735352 101.32250977 C-41.77183228 101.88216431 -41.77183228 101.88216431 -43.03125 102.453125 C-51.06457433 106.16134633 -58.9086275 110.13733901 -66.68701172 114.35351562 C-67.44127441 114.75892578 -68.19553711 115.16433594 -68.97265625 115.58203125 C-69.63724854 115.94369385 -70.30184082 116.30535645 -70.98657227 116.67797852 C-72.65625 117.453125 -72.65625 117.453125 -74.65625 117.453125 C-74.98625 118.113125 -75.31625 118.773125 -75.65625 119.453125 C-77.44921875 120.66015625 -77.44921875 120.66015625 -79.65625 121.453125 C-81.76953125 121.02734375 -81.76953125 121.02734375 -83.96875 120.140625 C-86.90656435 119.03348174 -89.53277551 118.22551299 -92.65625 117.890625 C-94.14125 117.6740625 -94.14125 117.6740625 -95.65625 117.453125 C-95.98625 116.793125 -96.31625 116.133125 -96.65625 115.453125 C-95.99625 115.123125 -95.33625 114.793125 -94.65625 114.453125 C-95.31625 113.793125 -95.97625 113.133125 -96.65625 112.453125 C-95.90053963 112.06753922 -95.90053963 112.06753922 -95.12956238 111.67416382 C-59.83921557 93.66793053 -59.83921557 93.66793053 -24.65625 75.453125 C-24.28644987 71.40689998 -24.28644987 71.40689998 -26.65625 68.453125 C-28.56909168 67.47712145 -28.56909168 67.47712145 -30.78125 66.703125 C-38.1714627 63.58519307 -43.75635819 58.44043116 -47.65625 51.453125 C-47.65625 50.793125 -47.65625 50.133125 -47.65625 49.453125 C-48.31625 49.123125 -48.97625 48.793125 -49.65625 48.453125 C-51.65625 46.453125 -51.65625 46.453125 -51.71875 43.328125 C-51.698125 42.049375 -51.6775 40.770625 -51.65625 39.453125 C-51.82390166 38.11715084 -52.01167851 36.7835593 -52.21875 35.453125 C-53.42407539 25.88357192 -49.4086844 18.21465318 -44.27734375 10.3359375 C-34.29758689 -2.45862257 -14.63975774 -6.92948533 0 0 Z M-36.65625 39.453125 C-35.65625 41.453125 -35.65625 41.453125 -35.65625 41.453125 Z M11.34375 99.453125 C10.35375 100.113125 9.36375 100.773125 8.34375 101.453125 C9.99375 101.453125 11.64375 101.453125 13.34375 101.453125 C12.68375 100.793125 12.02375 100.133125 11.34375 99.453125 Z M14.34375 100.453125 C18.34375 101.453125 18.34375 101.453125 18.34375 101.453125 Z M20.34375 102.453125 C20.67375 103.113125 21.00375 103.773125 21.34375 104.453125 C22.00375 104.123125 22.66375 103.793125 23.34375 103.453125 C22.35375 103.123125 21.36375 102.793125 20.34375 102.453125 Z M15.34375 104.453125 C16.82875 105.443125 16.82875 105.443125 18.34375 106.453125 C19.00375 106.123125 19.66375 105.793125 20.34375 105.453125 C18.69375 105.123125 17.04375 104.793125 15.34375 104.453125 Z M25.34375 106.453125 C25.67375 107.443125 26.00375 108.433125 26.34375 109.453125 C26.34375 108.463125 26.34375 107.473125 26.34375 106.453125 C26.01375 106.453125 25.68375 106.453125 25.34375 106.453125 Z M27.34375 109.453125 C27.01375 110.443125 26.68375 111.433125 26.34375 112.453125 C25.68375 112.123125 25.02375 111.793125 24.34375 111.453125 C24.34375 115.743125 24.34375 120.033125 24.34375 124.453125 C22.36375 125.443125 22.36375 125.443125 20.34375 126.453125 C20.34375 128.103125 20.34375 129.753125 20.34375 131.453125 C19.68375 131.783125 19.02375 132.113125 18.34375 132.453125 C18.983125 132.9275 19.6225 133.401875 20.28125 133.890625 C23.19225272 137.50732535 23.15024782 140.92517394 23.34375 145.453125 C23.67375 145.453125 24.00375 145.453125 24.34375 145.453125 C24.529375 144.2465625 24.529375 144.2465625 24.71875 143.015625 C24.925 142.17 25.13125 141.324375 25.34375 140.453125 C26.00375 140.123125 26.66375 139.793125 27.34375 139.453125 C27.8578912 137.75499005 28.33005759 136.04405882 28.78125 134.328125 C31.16792857 127.26023904 35.91770621 124.69938505 42.34375 121.453125 C41.68375 121.123125 41.02375 120.793125 40.34375 120.453125 C40.26253906 119.67582031 40.18132812 118.89851563 40.09765625 118.09765625 C39.57686147 115.18275405 39.57686147 115.18275405 36.62109375 113.65234375 C35.51894531 113.15347656 34.41679687 112.65460938 33.28125 112.140625 C32.17652344 111.62886719 31.07179688 111.11710937 29.93359375 110.58984375 C29.07894531 110.21472656 28.22429687 109.83960938 27.34375 109.453125 Z M52.34375 113.453125 C56.34375 114.453125 56.34375 114.453125 56.34375 114.453125 Z M-90.65625 114.453125 C-86.65625 115.453125 -86.65625 115.453125 -86.65625 115.453125 Z M48.34375 118.453125 C51.64375 118.453125 54.94375 118.453125 58.34375 118.453125 C56.52392538 116.21245278 56.52392538 116.21245278 53.90625 116.203125 C51.10270635 116.27344684 51.10270635 116.27344684 48.34375 118.453125 Z M-5.65625 121.453125 C-5.65625 121.783125 -5.65625 122.113125 -5.65625 122.453125 C-4.00625 122.453125 -2.35625 122.453125 -0.65625 122.453125 C-0.65625 122.123125 -0.65625 121.793125 -0.65625 121.453125 C-2.30625 121.453125 -3.95625 121.453125 -5.65625 121.453125 Z M-7.65625 122.453125 C-6.65625 125.453125 -6.65625 125.453125 -6.65625 125.453125 Z M-0.65625 122.453125 C0.34375 124.453125 0.34375 124.453125 0.34375 124.453125 Z M-44.65625 124.453125 C-44.48459313 134.75253709 -39.28101791 142.78373301 -32.65625 150.453125 C-29.2210452 152.74326153 -27.670919 152.63155473 -23.65625 152.453125 C-23.65625 151.463125 -23.65625 150.473125 -23.65625 149.453125 C-22.99625 149.453125 -22.33625 149.453125 -21.65625 149.453125 C-21.65625 148.133125 -21.65625 146.813125 -21.65625 145.453125 C-22.31625 145.453125 -22.97625 145.453125 -23.65625 145.453125 C-23.32625 144.463125 -22.99625 143.473125 -22.65625 142.453125 C-23.38820434 140.4867198 -23.38820434 140.4867198 -24.65625 138.453125 C-25.06875 137.73125 -25.48125 137.009375 -25.90625 136.265625 C-26.48375 135.3375 -27.06125 134.409375 -27.65625 133.453125 C-28.10226563 132.710625 -28.54828125 131.968125 -29.0078125 131.203125 C-29.76191406 129.9965625 -29.76191406 129.9965625 -30.53125 128.765625 C-31.00304687 127.99863281 -31.47484375 127.23164063 -31.9609375 126.44140625 C-35.89025348 121.83306101 -39.39950309 122.25262629 -44.65625 124.453125 Z M-4.65625 123.453125 C-4.65625 124.443125 -4.65625 125.433125 -4.65625 126.453125 C-5.64625 126.948125 -5.64625 126.948125 -6.65625 127.453125 C-5.66625 128.443125 -4.67625 129.433125 -3.65625 130.453125 C-2.66625 130.123125 -1.67625 129.793125 -0.65625 129.453125 C-0.65625 134.403125 -0.65625 139.353125 -0.65625 144.453125 C-2.63625 145.443125 -2.63625 145.443125 -4.65625 146.453125 C-6.21468964 147.38393366 -7.75612495 148.34367974 -9.28125 149.328125 C-10.05726563 149.82054687 -10.83328125 150.31296875 -11.6328125 150.8203125 C-13.81409263 152.58049608 -14.47643043 153.9623948 -15.65625 156.453125 C-16.64625 157.113125 -17.63625 157.773125 -18.65625 158.453125 C-17.480625 158.783125 -16.305 159.113125 -15.09375 159.453125 C-9.83079533 161.37630808 -6.97114521 165.091966 -3.65625 169.453125 C-3.32625 168.463125 -2.99625 167.473125 -2.65625 166.453125 C-1.99625 166.453125 -1.33625 166.453125 -0.65625 166.453125 C-0.32625 167.113125 0.00375 167.773125 0.34375 168.453125 C0.41784532 162.52663926 0.47232616 156.60042247 0.50854492 150.67358398 C0.52364179 148.65693466 0.54412115 146.64031821 0.57006836 144.6237793 C0.60641211 141.72696829 0.6234672 138.83059094 0.63671875 135.93359375 C0.65220261 135.03037888 0.66768646 134.127164 0.68363953 133.19657898 C0.68386612 132.35593399 0.68409271 131.515289 0.68432617 130.64916992 C0.69098801 129.90970627 0.69764984 129.17024261 0.70451355 128.40837097 C0.24102054 125.89635768 -0.65760691 124.99567865 -2.65625 123.453125 C-3.31625 123.453125 -3.97625 123.453125 -4.65625 123.453125 Z M0.34375 124.453125 C0.34375 125.113125 0.34375 125.773125 0.34375 126.453125 C1.00375 126.123125 1.66375 125.793125 2.34375 125.453125 C1.68375 125.123125 1.02375 124.793125 0.34375 124.453125 Z M118.34375 123.453125 C116.69375 124.113125 115.04375 124.773125 113.34375 125.453125 C113.34375 126.113125 113.34375 126.773125 113.34375 127.453125 C112.35375 127.783125 111.36375 128.113125 110.34375 128.453125 C110.17875 129.71125 110.01375 130.969375 109.84375 132.265625 C109.7509375 132.97332031 109.658125 133.68101562 109.5625 134.41015625 C109.290517 136.60784206 109.290517 136.60784206 109.34375 139.453125 C113.30375 139.453125 117.26375 139.453125 121.34375 139.453125 C121.4247706 137.34959005 121.48294907 135.24516548 121.53125 133.140625 C121.56605469 131.96886719 121.60085938 130.79710937 121.63671875 129.58984375 C121.63092399 126.46024036 121.63092399 126.46024036 119.83203125 124.53515625 C119.34089844 124.17808594 118.84976562 123.82101563 118.34375 123.453125 Z M8.34375 129.453125 C12.34375 130.453125 12.34375 130.453125 12.34375 130.453125 Z M-3.65625 131.453125 C-2.65625 133.453125 -2.65625 133.453125 -2.65625 133.453125 Z M-2.65625 133.453125 C-2.65625 136.093125 -2.65625 138.733125 -2.65625 141.453125 C-2.32625 141.453125 -1.99625 141.453125 -1.65625 141.453125 C-1.65625 138.813125 -1.65625 136.173125 -1.65625 133.453125 C-1.98625 133.453125 -2.31625 133.453125 -2.65625 133.453125 Z M41.34375 134.453125 C42.34375 136.453125 42.34375 136.453125 42.34375 136.453125 Z M108.34375 140.453125 C108.34375 140.783125 108.34375 141.113125 108.34375 141.453125 C111.64375 141.453125 114.94375 141.453125 118.34375 141.453125 C118.34375 141.123125 118.34375 140.793125 118.34375 140.453125 C115.04375 140.453125 111.74375 140.453125 108.34375 140.453125 Z M-3.65625 141.453125 C-2.65625 143.453125 -2.65625 143.453125 -2.65625 143.453125 Z M25.34375 141.453125 C25.34375 144.423125 25.34375 147.393125 25.34375 150.453125 C25.67375 150.453125 26.00375 150.453125 26.34375 150.453125 C26.34375 147.483125 26.34375 144.513125 26.34375 141.453125 C26.01375 141.453125 25.68375 141.453125 25.34375 141.453125 Z M97.34375 141.453125 C97.34375 141.783125 97.34375 142.113125 97.34375 142.453125 C100.76031024 142.61989782 100.76031024 142.61989782 104.34375 142.453125 C105.00375 141.793125 105.66375 141.133125 106.34375 140.453125 C103.23147805 140.453125 100.40222848 140.90939549 97.34375 141.453125 Z M143.34375 143.453125 C144.34375 146.453125 144.34375 146.453125 144.34375 146.453125 Z M109.34375 148.453125 C108.68375 149.773125 108.02375 151.093125 107.34375 152.453125 C106.68375 151.463125 106.02375 150.473125 105.34375 149.453125 C105.16701581 153.9598468 105.20823818 157.41938044 107.34375 161.453125 C108.00375 161.783125 108.66375 162.113125 109.34375 162.453125 C109.488125 163.0925 109.6325 163.731875 109.78125 164.390625 C110.20540035 166.83523355 110.20540035 166.83523355 113.34375 168.453125 C114.66375 167.793125 115.98375 167.133125 117.34375 166.453125 C118.00375 167.113125 118.66375 167.773125 119.34375 168.453125 C119.34375 161.853125 119.34375 155.253125 119.34375 148.453125 C118.35375 148.783125 117.36375 149.113125 116.34375 149.453125 C116.50875 150.21625 116.67375 150.979375 116.84375 151.765625 C117.34375 154.453125 117.34375 154.453125 117.34375 157.453125 C116.76625 156.81375 116.18875 156.174375 115.59375 155.515625 C113.36312599 153.47088632 112.26938609 152.87107301 109.34375 152.453125 C110.33375 151.133125 111.32375 149.813125 112.34375 148.453125 C111.35375 148.453125 110.36375 148.453125 109.34375 148.453125 Z M143.34375 149.453125 C142.14386955 154.73512093 142.14386955 154.73512093 144.34375 159.453125 C144.34375 156.153125 144.34375 152.853125 144.34375 149.453125 C144.01375 149.453125 143.68375 149.453125 143.34375 149.453125 Z M115.34375 151.453125 C116.34375 154.453125 116.34375 154.453125 116.34375 154.453125 Z M23.34375 153.453125 C23.34375 158.403125 23.34375 163.353125 23.34375 168.453125 C23.67375 168.453125 24.00375 168.453125 24.34375 168.453125 C24.34375 170.103125 24.34375 171.753125 24.34375 173.453125 C21.48986137 174.27690305 19.04984711 174.54541323 16.0859375 174.4453125 C15.29574219 174.42855469 14.50554687 174.41179687 13.69140625 174.39453125 C12.0349348 174.35004465 10.3786526 174.29788675 8.72265625 174.23828125 C7.93503906 174.22410156 7.14742187 174.20992187 6.3359375 174.1953125 C5.61776855 174.1732373 4.89959961 174.15116211 4.15966797 174.12841797 C3.56041504 174.23557129 2.96116211 174.34272461 2.34375 174.453125 C0.16289943 177.72440086 0.09487141 178.72689223 0.15625 182.515625 C0.16269531 183.39347656 0.16914063 184.27132812 0.17578125 185.17578125 C0.20095868 187.48438491 0.20095868 187.48438491 1.34375 189.453125 C1.69544068 190.78173425 2.03145276 192.11470828 2.34375 193.453125 C3.00375 191.473125 3.66375 189.493125 4.34375 187.453125 C5.43319884 187.45727307 5.43319884 187.45727307 6.54465675 187.46150494 C24.22187601 187.5277748 41.8990637 187.57741045 59.57637978 187.60856152 C68.12502124 187.62402657 76.67357975 187.64510916 85.22216797 187.67944336 C92.67362568 187.70935681 100.12502331 187.72870264 107.5765394 187.73539048 C111.52161813 187.73929946 115.46652499 187.74847848 119.41154861 187.77031517 C123.1264626 187.79071112 126.84113428 187.79695257 130.55609894 187.79244804 C132.56600539 187.793664 134.57588558 187.80978986 136.58572388 187.8263855 C137.78878174 187.82226151 138.9918396 187.81813751 140.23135376 187.81388855 C141.27297983 187.81665393 142.3146059 187.81941931 143.3877964 187.82226849 C146.92877958 187.38006571 149.32036596 186.33107189 152.34375 184.453125 C153.43565042 181.17742375 153.62975189 178.88514771 153.34375 175.453125 C152.42708333 173.36979167 152.42708333 173.36979167 150.34375 172.453125 C147.11884456 172.69200688 144.12670102 173.27324039 140.98046875 173.99609375 C138.11114738 174.49344279 135.44112666 174.55068375 132.53125 174.515625 C131.55542969 174.50660156 130.57960938 174.49757813 129.57421875 174.48828125 C128.47013672 174.47087891 128.47013672 174.47087891 127.34375 174.453125 C127.34375 173.793125 127.34375 173.133125 127.34375 172.453125 C125.85875 171.958125 125.85875 171.958125 124.34375 171.453125 C123.47492188 171.92363281 122.60609375 172.39414062 121.7109375 172.87890625 C117.43481529 174.87806779 114.10921033 174.79399615 109.46875 174.640625 C108.293125 174.62032227 108.293125 174.62032227 107.09375 174.59960938 C105.17678218 174.56454289 103.26017249 174.51074572 101.34375 174.453125 C101.34375 174.123125 101.34375 173.793125 101.34375 173.453125 C100.67988281 173.30617188 100.01601563 173.15921875 99.33203125 173.0078125 C92.96875748 171.39144807 90.0419788 169.88489855 86.34375 164.453125 C85.35375 163.463125 85.35375 163.463125 84.34375 162.453125 C84.34375 163.113125 84.34375 163.773125 84.34375 164.453125 C83.35375 164.515 83.35375 164.515 82.34375 164.578125 C78.01709212 165.84006688 74.62538211 168.38321109 71.34375 171.453125 C71.34375 172.113125 71.34375 172.773125 71.34375 173.453125 C69.85875 172.958125 69.85875 172.958125 68.34375 172.453125 C66.99963432 172.73990356 65.66569193 173.07714838 64.34375 173.453125 C61.49763582 173.79612821 58.64178383 173.95957856 55.78125 174.140625 C55.01361328 174.20056641 54.24597656 174.26050781 53.45507812 174.32226562 C47.69714982 174.68872488 47.69714982 174.68872488 44.34375 172.453125 C43.037663 171.81483197 41.72467708 171.19052299 40.40625 170.578125 C34.53975599 167.63951557 31.9960787 164.21702273 29.2734375 158.35546875 C28.27564747 156.20684987 28.27564747 156.20684987 26.34375 153.453125 C26.01375 154.773125 25.68375 156.093125 25.34375 157.453125 C24.68375 156.133125 24.02375 154.813125 23.34375 153.453125 Z M-42.65625 156.453125 C-42.65625 156.783125 -42.65625 157.113125 -42.65625 157.453125 C-40.67625 157.453125 -38.69625 157.453125 -36.65625 157.453125 C-36.65625 157.123125 -36.65625 156.793125 -36.65625 156.453125 C-38.63625 156.453125 -40.61625 156.453125 -42.65625 156.453125 Z M-44.65625 161.453125 C-41.19125 160.958125 -41.19125 160.958125 -37.65625 160.453125 C-41.14206856 159.2511186 -41.33617344 159.23974063 -44.65625 161.453125 Z M146.34375 162.453125 C150.34375 163.453125 150.34375 163.453125 150.34375 163.453125 Z M153.34375 168.453125 C153.34375 169.113125 153.34375 169.773125 153.34375 170.453125 C152.68375 170.453125 152.02375 170.453125 151.34375 170.453125 C151.34375 171.113125 151.34375 171.773125 151.34375 172.453125 C154.50490776 171.08328997 155.3364592 170.4640612 157.34375 167.453125 C155.2692144 167.3040538 155.2692144 167.3040538 153.34375 168.453125 Z M-48.65625 168.453125 C-48.65625 169.113125 -48.65625 169.773125 -48.65625 170.453125 C-47.99625 170.123125 -47.33625 169.793125 -46.65625 169.453125 C-47.31625 169.123125 -47.97625 168.793125 -48.65625 168.453125 Z M-42.65625 172.453125 C-42.65625 173.113125 -42.65625 173.773125 -42.65625 174.453125 C-39.68625 174.948125 -39.68625 174.948125 -36.65625 175.453125 C-39.5246913 173.35080156 -39.5246913 173.35080156 -42.65625 172.453125 Z M-0.65625 173.453125 C0.34375 176.453125 0.34375 176.453125 0.34375 176.453125 Z M-36.65625 175.453125 C-32.65625 176.453125 -32.65625 176.453125 -32.65625 176.453125 Z M-32.65625 176.453125 C-30.89095405 177.67003033 -30.89095405 177.67003033 -28.65625 178.453125 C-26.42154595 177.67003033 -26.42154595 177.67003033 -24.65625 176.453125 C-27.29625 176.453125 -29.93625 176.453125 -32.65625 176.453125 Z M-19.65625 177.453125 C-19.65625 178.113125 -19.65625 178.773125 -19.65625 179.453125 C-20.64625 180.113125 -21.63625 180.773125 -22.65625 181.453125 C-20.95495914 182.30074322 -19.24481916 183.1306118 -17.53125 183.953125 C-16.57992187 184.4171875 -15.62859375 184.88125 -14.6484375 185.359375 C-11.39845782 186.54735713 -9.08842655 186.80314867 -5.65625 186.453125 C-3.36896266 184.61428619 -3.36896266 184.61428619 -3.53125 181.828125 C-3.5725 181.044375 -3.61375 180.260625 -3.65625 179.453125 C-4.64625 179.948125 -4.64625 179.948125 -5.65625 180.453125 C-6.03394531 179.96199219 -6.41164063 179.47085938 -6.80078125 178.96484375 C-9.36688292 176.87414617 -11.08195933 177.15050298 -14.34375 177.265625 C-15.33761719 177.29269531 -16.33148438 177.31976563 -17.35546875 177.34765625 C-18.49435547 177.39986328 -18.49435547 177.39986328 -19.65625 177.453125 Z M-62.65625 187.453125 C-64.46036967 190.21236685 -64.6689745 191.34284603 -64.28125 194.703125 C-64.075 195.610625 -63.86875 196.518125 -63.65625 197.453125 C-63.32625 197.453125 -62.99625 197.453125 -62.65625 197.453125 C-62.32625 194.153125 -61.99625 190.853125 -61.65625 187.453125 C-61.98625 187.453125 -62.31625 187.453125 -62.65625 187.453125 Z M-0.65625 187.453125 C0.34375 190.453125 0.34375 190.453125 0.34375 190.453125 Z M-56.65625 193.453125 C-56.65625 193.783125 -56.65625 194.113125 -56.65625 194.453125 C-53.68625 194.453125 -50.71625 194.453125 -47.65625 194.453125 C-47.65625 194.123125 -47.65625 193.793125 -47.65625 193.453125 C-50.62625 193.453125 -53.59625 193.453125 -56.65625 193.453125 Z M0.34375 193.453125 C0.34375 196.453125 0.34375 196.453125 0.34375 196.453125 Z M-54.65625 196.453125 C-51.52126708 198.31089265 -49.28153568 198.65452976 -45.65625 198.453125 C-49.0914548 196.16298847 -50.641581 196.27469527 -54.65625 196.453125 Z " fill="#000000" transform="translate(268.65625,126.546875)"/>
<path d="M0 0 C5.75166508 4.2042628 8.55056836 10.03866751 9.98828125 16.83203125 C10.20678486 18.24007502 10.41117879 19.65037921 10.6015625 21.0625 C10.69469727 21.73128174 10.78783203 22.40006348 10.88378906 23.08911133 C11.65536993 30.23680392 9.8535607 35.70657 5.5859375 41.3046875 C1.58248349 45.90206051 -3.59982681 50.56444204 -9.7902832 51.27807617 C-11.3848938 51.2545105 -11.3848938 51.2545105 -13.01171875 51.23046875 C-14.74711914 51.2159668 -14.74711914 51.2159668 -16.51757812 51.20117188 C-18.31485352 51.1634668 -18.31485352 51.1634668 -20.1484375 51.125 C-21.9747168 51.10469727 -21.9747168 51.10469727 -23.83789062 51.08398438 C-26.83769095 51.04869261 -29.83658725 50.99938481 -32.8359375 50.9375 C-33.1659375 50.2775 -33.4959375 49.6175 -33.8359375 48.9375 C-34.6196875 48.793125 -35.4034375 48.64875 -36.2109375 48.5 C-39.14280523 47.87174263 -39.95016841 47.18246321 -41.8359375 44.9375 C-43.72144877 42.92609047 -43.72144877 42.92609047 -45.7734375 41.625 C-48.16050664 39.67194343 -49.32469136 37.60017177 -50.8359375 34.9375 C-51.1659375 34.9375 -51.4959375 34.9375 -51.8359375 34.9375 C-51.8359375 26.3575 -51.8359375 17.7775 -51.8359375 8.9375 C-50.5159375 8.2775 -49.1959375 7.6175 -47.8359375 6.9375 C-46.48161075 5.62549596 -45.14860268 4.29118596 -43.8359375 2.9375 C-31.83957146 -7.72593648 -13.39723547 -7.75329372 0 0 Z M-35.8359375 5.9375 C-34.8359375 7.9375 -34.8359375 7.9375 -34.8359375 7.9375 Z M-32.8359375 5.9375 C-31.8359375 7.9375 -31.8359375 7.9375 -31.8359375 7.9375 Z M-27.8359375 5.9375 C-27.8359375 6.9275 -27.8359375 7.9175 -27.8359375 8.9375 C-30.3359375 11.125 -30.3359375 11.125 -32.8359375 12.9375 C-33.4959375 11.6175 -34.1559375 10.2975 -34.8359375 8.9375 C-35.1659375 9.5975 -35.4959375 10.2575 -35.8359375 10.9375 C-34.79826421 13.48010298 -33.70136485 15.86992488 -32.4609375 18.3125 C-32.0987915 19.02841309 -31.73664551 19.74432617 -31.36352539 20.48193359 C-26.52528466 29.76911943 -20.58294502 38.9346517 -11.8359375 44.9375 C-9.7675399 44.66910514 -9.7675399 44.66910514 -7.8359375 43.9375 C-6.50260417 43.60416667 -5.16927083 43.27083333 -3.8359375 42.9375 C-3.5151126 37.59041835 -4.19132915 34.56556462 -6.8359375 29.9375 C-7.52845466 28.52327913 -8.21578026 27.10650662 -8.8984375 25.6875 C-10.07077742 23.25807271 -10.89869557 21.87474193 -12.8359375 19.9375 C-13.1659375 19.091875 -13.4959375 18.24625 -13.8359375 17.375 C-14.58463864 14.78908559 -14.58463864 14.78908559 -16.8359375 13.9375 C-17.1246875 13.339375 -17.4134375 12.74125 -17.7109375 12.125 C-19.06172368 9.49847132 -20.58856553 7.84436107 -22.8359375 5.9375 C-23.8259375 5.9375 -24.8159375 5.9375 -25.8359375 5.9375 C-26.4959375 5.9375 -27.1559375 5.9375 -27.8359375 5.9375 Z M-49.8359375 11.9375 C-48.8359375 14.9375 -48.8359375 14.9375 -48.8359375 14.9375 Z M-49.8359375 30.9375 C-48.8359375 32.9375 -48.8359375 32.9375 -48.8359375 32.9375 Z " fill="#000000" transform="translate(191.8359375,250.0625)"/>
<path d="M0 0 C0.99 0.66 1.98 1.32 3 2 C3 3.32 3 4.64 3 6 C3.99 6 4.98 6 6 6 C6.33 6.66 6.66 7.32 7 8 C8.83350768 8.58664938 8.83350768 8.58664938 11 9 C12.54746434 9.43836021 14.08921903 9.89731562 15.625 10.375 C16.78902344 10.72691406 16.78902344 10.72691406 17.9765625 11.0859375 C20 12 20 12 22 15 C22.2784729 17.22099304 22.2784729 17.22099304 22.31884766 19.83862305 C22.33871735 20.8194133 22.35858704 21.80020355 22.37905884 22.81071472 C22.39061005 23.86704605 22.40216125 24.92337738 22.4140625 26.01171875 C22.43342865 27.09508011 22.4527948 28.17844147 22.4727478 29.29463196 C22.53258344 32.75884093 22.5789453 36.22308305 22.625 39.6875 C22.66317607 42.03451979 22.70222758 44.38152552 22.7421875 46.72851562 C22.83828824 52.48555234 22.92332413 58.24267359 23 64 C23.33 64 23.66 64 24 64 C23.67 66.31 23.34 68.62 23 71 C19.6181523 71.77747943 16.63442381 72.08933758 13.171875 71.9140625 C12.29015625 71.87023437 11.4084375 71.82640625 10.5 71.78125 C9.13875 71.70390625 9.13875 71.70390625 7.75 71.625 C6.82703125 71.58117187 5.9040625 71.53734375 4.953125 71.4921875 C-1.86898292 71.13101708 -1.86898292 71.13101708 -3 70 C-3.04063832 68.33382885 -3.042721 66.66611905 -3 65 C-2.67 65 -2.34 65 -2 65 C-2 43.88 -2 22.76 -2 1 C-1.34 0.67 -0.68 0.34 0 0 Z " fill="#000000" transform="translate(117,230)"/>
<path d="M0 0 C3.375 -0.125 3.375 -0.125 7 0 C10.21952419 3.21952419 9.39746991 7.78159396 9.47851562 12.14648438 C9.58748253 16.37255956 9.58748253 16.37255956 11.53515625 20.00390625 C12.01855469 20.33261719 12.50195312 20.66132813 13 21 C13.33 19.68 13.66 18.36 14 17 C14.66 17.99 15.32 18.98 16 20 C15.42547254 16.06924356 15.42547254 16.06924356 13 13 C12.8046875 10.6171875 12.8046875 10.6171875 12.875 7.875 C12.89304688 6.96492188 12.91109375 6.05484375 12.9296875 5.1171875 C12.95289063 4.41851562 12.97609375 3.71984375 13 3 C15.75 1.8125 15.75 1.8125 19 1 C21.375 2.375 21.375 2.375 23 4 C22.67 5.65 22.34 7.3 22 9 C21.67 9 21.34 9 21 9 C20.67 12.63 20.34 16.26 20 20 C20.66 18.68 21.32 17.36 22 16 C22.66 17.32 23.32 18.64 24 20 C26.34111027 17.17941514 26.34111027 17.17941514 25.6875 14 C25.04448305 10.97290882 25.04448305 10.97290882 24 8 C26 6 26 6 29.1171875 5.734375 C30.35726562 5.73953125 31.59734375 5.7446875 32.875 5.75 C34.72738281 5.74226563 34.72738281 5.74226563 36.6171875 5.734375 C41.56995616 6.123276 41.56995616 6.123276 44 8 C45.046875 10.20703125 45.046875 10.20703125 45.75 12.8125 C45.99234375 13.66457031 46.2346875 14.51664062 46.484375 15.39453125 C47.0133277 18.06734526 47.31300195 20.28885075 47 23 C43.95318939 25.03120707 43.39881676 25.24659875 39.98828125 25.1953125 C39.23095703 25.18886719 38.47363281 25.18242187 37.69335938 25.17578125 C36.51483398 25.15064453 36.51483398 25.15064453 35.3125 25.125 C34.51521484 25.11597656 33.71792969 25.10695313 32.89648438 25.09765625 C30.930861 25.07411585 28.96539225 25.03824547 27 25 C27 24.34 27 23.68 27 23 C20.73 23.33 14.46 23.66 8 24 C8 24.33 8 24.66 8 25 C4.65747276 25.07427838 2.1964086 25.06546953 -1 24 C-3.39490986 23.93029948 -5.79167691 23.91551997 -8.1875 23.9375 C-9.45980469 23.94652344 -10.73210937 23.95554687 -12.04296875 23.96484375 C-13.01878906 23.97644531 -13.99460938 23.98804688 -15 24 C-15 24.33 -15 24.66 -15 25 C-17.875 25.125 -17.875 25.125 -21 25 C-23 23 -23 23 -23.16015625 20.79296875 C-23.12792969 19.93316406 -23.09570312 19.07335937 -23.0625 18.1875 C-22.9852098 14.62699815 -23.07515047 11.46818572 -24 8 C-20.7469822 6.07741264 -18.19901177 5.67617703 -14.4375 5.625 C-13.48746094 5.59664063 -12.53742188 5.56828125 -11.55859375 5.5390625 C-9 6 -9 6 -7.203125 7.7890625 C-5.57117146 10.78804206 -5.32399763 13.63042462 -5 17 C-3.35 17.66 -1.7 18.32 0 19 C0.33 16.03 0.66 13.06 1 10 C1.33 10 1.66 10 2 10 C1.98839844 10.63808594 1.97679687 11.27617187 1.96484375 11.93359375 C1.95582031 12.75988281 1.94679687 13.58617187 1.9375 14.4375 C1.92589844 15.26121094 1.91429687 16.08492188 1.90234375 16.93359375 C1.76732652 18.99163938 1.76732652 18.99163938 3 20 C3 14.39 3 8.78 3 3 C1.70366379 4.06645115 1.70366379 4.06645115 1.9375 6.5625 C1.958125 7.366875 1.97875 8.17125 2 9 C0.25165733 6.377486 -0.51529754 5.00515522 -1 2 C-0.67 1.34 -0.34 0.68 0 0 Z M15 7 C19 8 19 8 19 8 Z M27 7 C27 7.33 27 7.66 27 8 C28.65 8 30.3 8 32 8 C32 7.67 32 7.34 32 7 C30.35 7 28.7 7 27 7 Z M43 11 C43 13.97 43 16.94 43 20 C43.66 19.67 44.32 19.34 45 19 C44.67 16.36 44.34 13.72 44 11 C43.67 11 43.34 11 43 11 Z M33 13 C33 14.98 33 16.96 33 19 C33.99 19.495 33.99 19.495 35 20 C34.67 17.69 34.34 15.38 34 13 C33.67 13 33.34 13 33 13 Z M-21 14 C-20 18 -20 18 -20 18 Z M-15 14 C-14 17 -14 17 -14 17 Z M28 14 C27.67 15.98 27.34 17.96 27 20 C27.66 20 28.32 20 29 20 C29 18.02 29 16.04 29 14 C28.67 14 28.34 14 28 14 Z M38 16 C39 20 39 20 39 20 Z " fill="#000000" transform="translate(188,345)"/>
<path d="M0 0 C2.0622048 -0.054348 4.12482816 -0.09294961 6.1875 -0.125 C7.33605469 -0.14820313 8.48460937 -0.17140625 9.66796875 -0.1953125 C12.94646557 -0.00313801 15.0286274 0.69649631 18 2 C18.99 2 19.98 2 21 2 C21.33 1.34 21.66 0.68 22 0 C26.24832044 0.78672601 29.8274358 2.34775044 32.375 5.9375 C33.10948624 8.3613046 32.84172676 9.64316506 32 12 C30.35 12.33 28.7 12.66 27 13 C28.32 13 29.64 13 31 13 C30.625 15.4375 30.625 15.4375 30 18 C27.2201184 19.3899408 25.0813674 19.18488204 22 19 C19.41123879 18.05013134 18.25106074 17.38588965 16.734375 15.0546875 C16.24710937 13.97574219 16.24710937 13.97574219 15.75 12.875 C15.41484375 12.15054687 15.0796875 11.42609375 14.734375 10.6796875 C14.49203125 10.12539063 14.2496875 9.57109375 14 9 C12.68 9.33 11.36 9.66 10 10 C10.04125 11.11375 10.0825 12.2275 10.125 13.375 C10 17 10 17 8 19 C4.375 19.125 4.375 19.125 1 19 C-0.50540531 15.98918937 -0.41470427 12.80906517 -0.625 9.5 C-0.6765625 8.81035156 -0.728125 8.12070312 -0.78125 7.41015625 C-1.12345364 2.24690727 -1.12345364 2.24690727 0 0 Z M23 5 C23.33 5.66 23.66 6.32 24 7 C24.99 7 25.98 7 27 7 C27 6.34 27 5.68 27 5 C25.68 5 24.36 5 23 5 Z M2 7 C2 8.98 2 10.96 2 13 C2.33 13 2.66 13 3 13 C3 11.02 3 9.04 3 7 C2.67 7 2.34 7 2 7 Z M17 7 C17 8.65 17 10.3 17 12 C17.33 12 17.66 12 18 12 C18 10.35 18 8.7 18 7 C17.67 7 17.34 7 17 7 Z " fill="#000000" transform="translate(323,351)"/>
<path d="M0 0 C0.98613281 0.13921875 1.97226562 0.2784375 2.98828125 0.421875 C4.47908203 0.61523438 4.47908203 0.61523438 6 0.8125 C6.75925781 0.93109375 7.51851563 1.0496875 8.30078125 1.171875 C10.66840813 7.32770489 12.56240661 13.84056666 9.98828125 20.171875 C8.30078125 23.171875 8.30078125 23.171875 6.30078125 24.171875 C1.74531042 24.42973184 -1.57728235 24.17038962 -5.69921875 22.171875 C-5.77349713 18.82934776 -5.76468828 16.3682836 -4.69921875 13.171875 C-5.02921875 12.511875 -5.35921875 11.851875 -5.69921875 11.171875 C-6.15280226 5.04849767 -6.15280226 5.04849767 -4.5390625 1.9296875 C-2.69921875 0.171875 -2.69921875 0.171875 0 0 Z M-4.69921875 6.171875 C-3.69921875 8.171875 -3.69921875 8.171875 -3.69921875 8.171875 Z M0.30078125 22.171875 C4.30078125 23.171875 4.30078125 23.171875 4.30078125 23.171875 Z " fill="#000000" transform="translate(272.69921875,345.828125)"/>
<path d="M0 0 C1.61983924 2.93595862 0.56272853 5.6049474 0 8.8125 C0.34659295 11.13408065 0.34659295 11.13408065 1 12.8125 C-2.20774901 15.31610898 -4.44948529 16.72402442 -8.5 17.375 C-11.996334 16.81308918 -14.27445226 16.02863888 -16.890625 13.57421875 C-18.80528494 10.53368483 -18.74160054 7.63672112 -18.52734375 4.125 C-18 1.8125 -18 1.8125 -15.75 -0.75 C-9.95434727 -3.77954575 -5.84503498 -3.47048952 0 0 Z M-8 -1.1875 C-4 -0.1875 -4 -0.1875 -4 -0.1875 Z M-6 4.8125 C-5 8.8125 -5 8.8125 -5 8.8125 Z M-17 5.8125 C-16 7.8125 -16 7.8125 -16 7.8125 Z " fill="#000000" transform="translate(319,353.1875)"/>
<path d="M0 0 C3.0625 2 3.0625 2 5 5 C5.34561601 9.51119843 4.05701736 14.00696631 2 18 C-0.44777839 19.2238892 -1.73390541 19.016364 -4.4375 18.75 C-5.61119141 18.64945312 -5.61119141 18.64945312 -6.80859375 18.546875 C-9.48291566 17.87948629 -10.43078207 17.26500323 -12 15 C-12.80876094 10.22758185 -12.88159223 5.5795194 -10.5 1.3125 C-6.96739458 -0.54211785 -3.84027621 -0.85761109 0 0 Z M1 3 C1.66 3.66 2.32 4.32 3 5 C3 4.34 3 3.68 3 3 C2.34 3 1.68 3 1 3 Z " fill="#000000" transform="translate(249,351)"/>
<path d="M0 0 C3.25 1.5625 3.25 1.5625 6 4 C6.875 7.75 6.875 7.75 7 11 C7.66 11 8.32 11 9 11 C8.07739356 14.10331257 7.29502729 15.74711947 4.8125 17.875 C1.02130142 19.39147943 -1.0887037 19.11751323 -5 18 C-7.9375 15.875 -7.9375 15.875 -10 13 C-10.57167363 8.99828457 -10.36938628 6.77235314 -8.625 3.125 C-6.07971038 -0.20345565 -4.06663905 -0.46211807 0 0 Z M-4 7 C-3 11 -3 11 -3 11 Z M-3 11 C-2 13 -2 13 -2 13 Z " fill="#000000" transform="translate(154,351)"/>
<path d="M0 0 C1.8125 1.125 1.8125 1.125 3 3 C3.33488561 6.85118451 2.83409261 10.24658325 2 14 C2 14.66 2 15.32 2 16 C1.01 16.33 0.02 16.66 -1 17 C-0.01 17 0.98 17 2 17 C2 17.66 2 18.32 2 19 C-0.875 19.625 -0.875 19.625 -4 20 C-6 18 -6 18 -6.125 14.375 C-6.08375 13.26125 -6.0425 12.1475 -6 11 C-6.66 11 -7.32 11 -8 11 C-8.75 7.75 -8.75 7.75 -9 4 C-6.53134102 0.29701152 -4.40197799 -0.79009861 0 0 Z M-1 3 C0 5 0 5 0 5 Z " fill="#000000" transform="translate(296,348)"/>
<path d="M0 0 C26.4 0 52.8 0 80 0 C80 0.33 80 0.66 80 1 C53.6 1 27.2 1 0 1 C0 0.67 0 0.34 0 0 Z " fill="#000000" transform="translate(283,329)"/>
<path d="M0 0 C19.14 0 38.28 0 58 0 C58 0.33 58 0.66 58 1 C38.86 1 19.72 1 0 1 C0 0.67 0 0.34 0 0 Z " fill="#000000" transform="translate(141,329)"/>
<path d="M0 0 C0.33 0 0.66 0 1 0 C1 5.61 1 11.22 1 17 C0.34 17 -0.32 17 -1 17 C-1.02691685 14.54159395 -1.04679802 12.08348118 -1.0625 9.625 C-1.07087891 8.92632812 -1.07925781 8.22765625 -1.08789062 7.5078125 C-1.11328125 2.2265625 -1.11328125 2.2265625 0 0 Z " fill="#000000" transform="translate(114,268)"/>
<path d="M0 0 C2.64 0 5.28 0 8 0 C8 0.33 8 0.66 8 1 C5.36 1 2.72 1 0 1 C0 0.67 0 0.34 0 0 Z " fill="#000000" transform="translate(215,329)"/>
<path d="M0 0 C1.98 0 3.96 0 6 0 C6 0.33 6 0.66 6 1 C4.02 1 2.04 1 0 1 C0 0.67 0 0.34 0 0 Z " fill="#000000" transform="translate(203,369)"/>
<path d="M0 0 C0.99 0.99 1.98 1.98 3 3 C2.01 2.67 1.02 2.34 0 2 C0 1.34 0 0.68 0 0 Z " fill="#000000" transform="translate(362,248)"/>
<path d="M0 0 C4 1 4 1 4 1 Z " fill="#000000" transform="translate(292,369)"/>
<path d="M0 0 C0.66 0.66 1.32 1.32 2 2 C1.34 2 0.68 2 0 2 C0 1.34 0 0.68 0 0 Z " fill="#000000" transform="translate(290,367)"/>
<path d="" fill="#000000" transform="translate(0,0)"/>
<path d="" fill="#000000" transform="translate(0,0)"/>
<path d="" fill="#000000" transform="translate(0,0)"/>
<path d="" fill="#000000" transform="translate(0,0)"/>
<path d="M0 0 C2 1 2 1 2 1 Z " fill="#000000" transform="translate(180,301)"/>
<path d="M0 0 C2 1 2 1 2 1 Z " fill="#000000" transform="translate(162,301)"/>
<path d="" fill="#000000" transform="translate(0,0)"/>
<path d="" fill="#000000" transform="translate(0,0)"/>
<path d="" fill="#000000" transform="translate(0,0)"/>
<path d="" fill="#000000" transform="translate(0,0)"/>
<path d="M0 0 C2 1 2 1 2 1 Z " fill="#000000" transform="translate(306,243)"/>
<path d="M0 0 C2 1 2 1 2 1 Z " fill="#000000" transform="translate(337,240)"/>
<path d="M0 0 C2 1 2 1 2 1 Z " fill="#000000" transform="translate(174,236)"/>
<path d="M0 0 C2 1 2 1 2 1 Z " fill="#000000" transform="translate(176,235)"/>
<path d="M0 0 C2 1 2 1 2 1 Z " fill="#000000" transform="translate(274,230)"/>
<path d="" fill="#000000" transform="translate(0,0)"/>
<path d="" fill="#000000" transform="translate(0,0)"/>
<path d="" fill="#000000" transform="translate(0,0)"/>
<path d="" fill="#000000" transform="translate(0,0)"/>
<path d="" fill="#000000" transform="translate(0,0)"/>
<path d="" fill="#000000" transform="translate(0,0)"/>
<path d="" fill="#000000" transform="translate(0,0)"/>
<path d="" fill="#000000" transform="translate(0,0)"/>
<path d="" fill="#000000" transform="translate(0,0)"/>
<path d="" fill="#000000" transform="translate(0,0)"/>
<path d="" fill="#000000" transform="translate(0,0)"/>
<path d="" fill="#000000" transform="translate(0,0)"/>
<path d="" fill="#000000" transform="translate(0,0)"/>
<path d="" fill="#000000" transform="translate(0,0)"/>
<path d="" fill="#000000" transform="translate(0,0)"/>
<path d="" fill="#000000" transform="translate(0,0)"/>
<path d="" fill="#000000" transform="translate(0,0)"/>
<path d="" fill="#000000" transform="translate(0,0)"/>
<path d="" fill="#000000" transform="translate(0,0)"/>
<path d="" fill="#000000" transform="translate(0,0)"/>
<path d="" fill="#000000" transform="translate(0,0)"/>
<path d="" fill="#000000" transform="translate(0,0)"/>
<path d="" fill="#000000" transform="translate(0,0)"/>
<path d="" fill="#000000" transform="translate(0,0)"/>
<path d="" fill="#000000" transform="translate(0,0)"/>
<path d="" fill="#000000" transform="translate(0,0)"/>
<path d="" fill="#000000" transform="translate(0,0)"/>
<path d="" fill="#000000" transform="translate(0,0)"/>
<path d="" fill="#000000" transform="translate(0,0)"/>
<path d="" fill="#000000" transform="translate(0,0)"/>
<path d="" fill="#000000" transform="translate(0,0)"/>
<path d="" fill="#000000" transform="translate(0,0)"/>
<path d="" fill="#000000" transform="translate(0,0)"/>
<path d="" fill="#000000" transform="translate(0,0)"/>
<path d="" fill="#000000" transform="translate(0,0)"/>
<path d="" fill="#000000" transform="translate(0,0)"/>
<path d="" fill="#000000" transform="translate(0,0)"/>
<path d="" fill="#000000" transform="translate(0,0)"/>
<path d="" fill="#000000" transform="translate(0,0)"/>
<path d="" fill="#000000" transform="translate(0,0)"/>
<path d="" fill="#000000" transform="translate(0,0)"/>
<path d="" fill="#000000" transform="translate(0,0)"/>
<path d="" fill="#000000" transform="translate(0,0)"/>
<path d="" fill="#000000" transform="translate(0,0)"/>
<path d="" fill="#000000" transform="translate(0,0)"/>
<path d="" fill="#000000" transform="translate(0,0)"/>
<path d="" fill="#000000" transform="translate(0,0)"/>
<path d="" fill="#000000" transform="translate(0,0)"/>
<path d="" fill="#000000" transform="translate(0,0)"/>
<path d="" fill="#000000" transform="translate(0,0)"/>
<path d="" fill="#000000" transform="translate(0,0)"/>
<path d="" fill="#000000" transform="translate(0,0)"/>
<path d="" fill="#000000" transform="translate(0,0)"/>
<path d="" fill="#000000" transform="translate(0,0)"/>
<path d="" fill="#000000" transform="translate(0,0)"/>
</svg>
